<?xml version="1.0" standalone="no"?>
<!DOCTYPE svg PUBLIC "-//W3C//DTD SVG 20010904//EN"
 "http://www.w3.org/TR/2001/REC-SVG-20010904/DTD/svg10.dtd">
<svg version="1.0" xmlns="http://www.w3.org/2000/svg"
 width="512.000000pt" height="512.000000pt" viewBox="0 0 512.000000 512.000000"
 preserveAspectRatio="xMidYMid meet">
<metadata>
Created by potrace 1.11, written by Peter Selinger 2001-2013
</metadata>
<g transform="translate(0.000000,512.000000) scale(0.100000,-0.100000)"
fill="#000000" stroke="none">
<path d="M959 5116 c-2 -2 -42 -6 -89 -10 -47 -3 -96 -8 -110 -11 -14 -3 -40
-8 -58 -11 -84 -14 -219 -76 -287 -131 -124 -103 -253 -244 -302 -331 -59
-106 -85 -201 -100 -372 -11 -114 -10 -3292 0 -3400 17 -174 68 -321 149 -429
52 -68 192 -208 261 -260 117 -89 244 -132 432 -149 108 -9 3330 -9 3425 0
161 17 294 62 407 139 67 46 256 239 298 304 74 116 105 215 123 395 9 96 9
3320 0 3420 -19 201 -68 330 -173 460 -63 78 -228 227 -295 266 -84 50 -197
89 -286 99 -32 4 -68 10 -79 13 -21 6 -3310 14 -3316 8z"/>
</g>
</svg>
